<svg width="71" height="88" viewBox="0 0 71 88" fill="none" xmlns="http://www.w3.org/2000/svg">
<path d="M0 87.2727V-1.90735e-06H37.6705C44.1477 -1.90735e-06 49.8153 1.27841 54.6733 3.83523C59.5313 6.39204 63.3097 9.98579 66.0085 14.6165C68.7074 19.2472 70.0568 24.6591 70.0568 30.8523C70.0568 37.1023 68.6648 42.5142 65.8807 47.0881C63.125 51.6619 59.2472 55.1847 54.2472 57.6562C49.2756 60.1278 43.4659 61.3636 36.8182 61.3636H14.3182V42.9545H32.0455C34.8295 42.9545 37.2017 42.4716 39.1619 41.5057C41.1506 40.5114 42.6705 39.1051 43.7216 37.2869C44.8011 35.4687 45.3409 33.3239 45.3409 30.8523C45.3409 28.3523 44.8011 26.2216 43.7216 24.4602C42.6705 22.6705 41.1506 21.3068 39.1619 20.3693C37.2017 19.4034 34.8295 18.9205 32.0455 18.9205H23.6932V87.2727H0Z" fill="#35BC81"/>
</svg>
